<?xml version="1.0" encoding="UTF-8" standalone="no"?>
<!-- Created with Inkscape (http://www.inkscape.org/) -->
<svg
   xmlns:dc="http://purl.org/dc/elements/1.1/"
   xmlns:cc="http://creativecommons.org/ns#"
   xmlns:rdf="http://www.w3.org/1999/02/22-rdf-syntax-ns#"
   xmlns:svg="http://www.w3.org/2000/svg"
   xmlns="http://www.w3.org/2000/svg"
   xmlns:sodipodi="http://sodipodi.sourceforge.net/DTD/sodipodi-0.dtd"
   xmlns:inkscape="http://www.inkscape.org/namespaces/inkscape"
   width="96"
   height="96"
   id="svg4244"
   sodipodi:version="0.32"
   inkscape:version="0.46"
   version="1.0"
   sodipodi:docname="mos_en.svg"
   inkscape:output_extension="org.inkscape.output.svg.inkscape">
  <defs
     id="defs4246">
    <inkscape:perspective
       sodipodi:type="inkscape:persp3d"
       inkscape:vp_x="0 : 526.18109 : 1"
       inkscape:vp_y="0 : 1000 : 0"
       inkscape:vp_z="744.09448 : 526.18109 : 1"
       inkscape:persp3d-origin="372.04724 : 350.78739 : 1"
       id="perspective4252" />
  </defs>
  <sodipodi:namedview
     id="base"
     pagecolor="#ffffff"
     bordercolor="#666666"
     borderopacity="1.0"
     gridtolerance="10000"
     guidetolerance="10"
     objecttolerance="10"
     inkscape:pageopacity="0.0"
     inkscape:pageshadow="2"
     inkscape:zoom="5.6"
     inkscape:cx="59.997645"
     inkscape:cy="74.073422"
     inkscape:document-units="px"
     inkscape:current-layer="layer1"
     showgrid="false"
     showguides="true"
     inkscape:guide-bbox="true"
     inkscape:window-width="1280"
     inkscape:window-height="740"
     inkscape:window-x="0"
     inkscape:window-y="26">
    <sodipodi:guide
       orientation="0,1"
       position="-10.892857,48.035714"
       id="guide4264" />
    <sodipodi:guide
       orientation="1,0"
       position="48.035714,67.321429"
       id="guide4266" />
    <sodipodi:guide
       orientation="0,1"
       position="35,77.678572"
       id="guide4268" />
    <sodipodi:guide
       orientation="0,1"
       position="36.785714,37.678572"
       id="guide4270" />
  </sodipodi:namedview>
  <metadata
     id="metadata4249">
    <rdf:RDF>
      <cc:Work
         rdf:about="">
        <dc:format>image/svg+xml</dc:format>
        <dc:type
           rdf:resource="http://purl.org/dc/dcmitype/StillImage" />
      </cc:Work>
    </rdf:RDF>
  </metadata>
  <g
     inkscape:label="Layer 1"
     inkscape:groupmode="layer"
     id="layer1">
    <g
       style="opacity:1;display:inline"
       id="g5398"
       transform="matrix(1.3349841,0,0,1.3349841,-750.72626,-135.68287)">
      <path
         transform="matrix(-1,0,0,-1.333333,1012.8977,264.96667)"
         d="M 435.82676,100.86611 A 14.173228,10.629921 0 1 1 407.48031,100.86611 A 14.173228,10.629921 0 1 1 435.82676,100.86611 z"
         sodipodi:ry="10.629921"
         sodipodi:rx="14.173228"
         sodipodi:cy="100.86611"
         sodipodi:cx="421.65353"
         id="path5202"
         style="fill:none;fill-opacity:0.69090911;fill-rule:nonzero;stroke:#000000;stroke-width:1.53429651;stroke-linecap:square;stroke-linejoin:miter;marker:none;marker-start:none;marker-mid:none;marker-end:none;stroke-miterlimit:4;stroke-dasharray:none;stroke-dashoffset:0;stroke-opacity:1;visibility:visible;display:inline;overflow:visible"
         sodipodi:type="arc" />
      <path
         sodipodi:nodetypes="ccc"
         d="M 587.70078,123.39182 L 587.70078,137.56504 L 563.2961,137.56505"
         style="fill:none;fill-opacity:0.75;fill-rule:evenodd;stroke:#000000;stroke-width:1.77165365;stroke-linecap:square;stroke-linejoin:miter;marker-end:none;stroke-miterlimit:4;stroke-opacity:1;display:inline"
         id="path5204" />
      <path
         sodipodi:nodetypes="cc"
         id="path5206"
         d="M 591.24409,130.47844 L 594.7874,130.47844"
         style="fill:none;fill-opacity:0.75;fill-rule:evenodd;stroke:#000000;stroke-width:1.77165353;stroke-linecap:square;stroke-linejoin:miter;marker-end:none;stroke-miterlimit:4;stroke-dasharray:none;stroke-opacity:1;display:inline" />
      <path
         sodipodi:nodetypes="ccc"
         id="path5208"
         d="M 598.3307,172.94112 L 598.3307,137.56505 L 591.24409,137.56505"
         style="fill:none;fill-opacity:0.75;fill-rule:evenodd;stroke:#000000;stroke-width:1.77165353;stroke-linecap:square;stroke-linejoin:miter;stroke-miterlimit:4;stroke-dasharray:none;stroke-opacity:1;display:inline" />
      <path
         sodipodi:nodetypes="ccc"
         id="path5210"
         d="M 591.24409,123.39182 L 598.3307,123.39182 L 598.3307,102.46214"
         style="fill:none;fill-opacity:0.75;fill-rule:evenodd;stroke:#000000;stroke-width:1.77165353;stroke-linecap:square;stroke-linejoin:miter;stroke-miterlimit:4;stroke-dasharray:none;stroke-opacity:1;display:inline" />
      <path
         sodipodi:nodetypes="cc"
         id="path5212"
         d="M 591.24409,119.84852 L 591.24409,141.10836"
         style="fill:none;fill-opacity:0.75;fill-rule:evenodd;stroke:#000000;stroke-width:2.48031497;stroke-linecap:butt;stroke-linejoin:miter;stroke-miterlimit:4;stroke-dasharray:4.96062994, 2.48031497;stroke-dashoffset:6.69685042;stroke-opacity:1;display:inline" />
      <g
         transform="translate(16.73938,-81.45277)"
         id="g5214"
         style="stroke:#000000;stroke-width:1.0629921;stroke-miterlimit:4;stroke-dasharray:none;display:inline">
        <path
           id="path5216"
           d="M 574.98307,211.93117 L 578.04803,210.15952 L 578.04803,213.70282 L 574.98307,211.93117 z"
           style="fill-rule:evenodd;stroke:#000000;stroke-width:1.0629921;marker-start:none;stroke-miterlimit:4;stroke-dasharray:none" />
      </g>
      <path
         sodipodi:nodetypes="ccc"
         id="path5230"
         d="M 598.3307,137.56505 L 598.3307,130.47844 L 594.7874,130.47844"
         style="fill:none;fill-opacity:0.75;fill-rule:evenodd;stroke:#000000;stroke-width:1.77165353;stroke-linecap:square;stroke-linejoin:miter;marker-end:none;stroke-miterlimit:4;stroke-dasharray:none;stroke-opacity:1;display:inline" />
    </g>
    <g
       id="g4822"
       transform="translate(-54.821429,-3.3928572)">
      <text
         sodipodi:linespacing="125%"
         id="text4814"
         y="15.464286"
         x="58.035717"
         style="font-size:15px;font-style:normal;font-variant:normal;font-weight:normal;font-stretch:normal;text-align:start;line-height:125%;writing-mode:lr-tb;text-anchor:start;fill:#000000;fill-opacity:1;stroke:none;stroke-width:1px;stroke-linecap:butt;stroke-linejoin:miter;stroke-opacity:1;font-family:Arial;-inkscape-font-specification:Arial"
         xml:space="preserve"><tspan
           y="15.464286"
           x="58.035717"
           id="name"
           sodipodi:role="line"></tspan></text>
      <text
         sodipodi:linespacing="125%"
         id="text4818"
         y="91.913086"
         x="52.39537"
         style="font-size:15px;font-style:normal;font-variant:normal;font-weight:normal;font-stretch:normal;text-align:start;line-height:125%;writing-mode:lr-tb;text-anchor:start;fill:#000000;fill-opacity:1;stroke:none;stroke-width:1px;stroke-linecap:butt;stroke-linejoin:miter;stroke-opacity:1;font-family:Arial;-inkscape-font-specification:Arial"
         xml:space="preserve"><tspan
           y="91.913086"
           x="52.39537"
           id="value"
           sodipodi:role="line" /></text>
    </g>
    <path
       style="fill:#ffffff;fill-opacity:0;stroke:none;stroke-opacity:1"
       d="M 36.569074,56.01881 C 32.390225,55.521708 27.88125,53.167455 25.353086,50.162651 L 24.583524,49.248007 L 29.862018,49.248007 L 35.140502,49.248007 L 35.140502,38.533721 L 35.140502,27.819435 L 33.890502,27.819435 L 32.640502,27.819435 L 32.640502,37.283721 L 32.640502,46.748007 L 27.822082,46.748007 L 23.003661,46.748007 L 22.556415,45.86541 C 21.877956,44.526533 21.230147,42.081632 21.058179,40.210905 C 20.389822,32.940216 23.985111,26.328446 30.497645,22.851648 C 34.996372,20.449946 40.859574,20.234483 45.4813,22.301025 L 46.747645,22.867253 L 46.747645,25.343346 L 46.747645,27.819435 L 43.541184,27.819435 L 40.334725,27.819435 L 40.282256,26.524792 L 40.229788,25.23015 L 38.578002,25.178803 L 36.926216,25.127464 L 36.926216,28.527017 L 36.926216,31.926578 L 38.622645,31.926578 L 40.319074,31.926578 L 40.319074,31.123007 L 40.319074,30.319435 L 44.783359,30.319435 L 49.247645,30.319435 L 49.247645,27.462292 C 49.247645,25.890864 49.313336,24.60515 49.393624,24.60515 C 49.473907,24.60515 50.158943,25.218498 50.915918,25.968144 C 58.091741,33.074519 57.932445,44.492616 50.561266,51.388344 L 49.336931,52.533708 L 49.29037,44.908717 L 49.243809,37.283721 L 46.664266,37.283721 L 44.084725,37.283721 L 44.032256,36.048871 L 43.979788,34.814016 L 42.194074,35.864342 L 40.408359,36.914666 L 40.354386,36.027764 L 40.300415,35.140864 L 38.613315,35.140864 L 36.926216,35.140864 L 36.926216,38.533721 L 36.926216,41.926578 L 38.622645,41.926578 L 40.319074,41.926578 L 40.319074,41.033721 C 40.319074,40.54265 40.356786,40.140864 40.402881,40.140864 C 40.448979,40.140864 41.169352,40.544083 42.00372,41.036907 C 44.203961,42.336487 44.069074,42.341282 44.069074,40.963541 L 44.069074,39.783721 L 45.408359,39.783721 L 46.747645,39.783721 L 46.747645,43.265864 L 46.747645,46.748007 L 43.533359,46.748007 L 40.319074,46.748007 L 40.319074,45.944435 L 40.319074,45.140864 L 38.622645,45.140864 L 36.926216,45.140864 L 36.926216,48.533721 L 36.926216,51.926578 L 38.622645,51.926578 L 40.319074,51.926578 L 40.319074,50.587292 L 40.319074,49.248007 L 43.533359,49.248007 L 46.747645,49.248007 L 46.747645,51.719342 L 46.747645,54.190678 L 46.256574,54.415362 C 43.250965,55.790557 39.65447,56.385837 36.569074,56.018808 L 36.569074,56.01881 z"
       id="path3485" />
  </g>
  <g
     inkscape:groupmode="layer"
     id="layer3"
     inkscape:label="Pini">
    <g
       id="g4809">
      <rect
         inkscape:label="#rect4292"
         y="0.10714266"
         x="30"
         height="18.214285"
         width="40.17857"
         id="pin3"
         style="fill:#000000;fill-opacity:0;stroke:none;stroke-opacity:1" />
      <rect
         inkscape:label="#rect4805"
         y="76.928574"
         x="29.767859"
         height="19.107141"
         width="38.392857"
         id="pin1"
         style="fill:#000000;fill-opacity:0;stroke:none;stroke-opacity:1" />
      <rect
         inkscape:label="#rect4807"
         y="25.892859"
         x="-0.017857146"
         height="41.785713"
         width="19.999998"
         id="pin2"
         style="fill:#000000;fill-opacity:0;stroke:none;stroke-opacity:1" />
    </g>
  </g>
</svg>
