<?xml version="1.0" encoding="UTF-8" standalone="no"?>
<!-- Created with Inkscape (http://www.inkscape.org/) -->
<svg
   xmlns:dc="http://purl.org/dc/elements/1.1/"
   xmlns:cc="http://creativecommons.org/ns#"
   xmlns:rdf="http://www.w3.org/1999/02/22-rdf-syntax-ns#"
   xmlns:svg="http://www.w3.org/2000/svg"
   xmlns="http://www.w3.org/2000/svg"
   xmlns:sodipodi="http://sodipodi.sourceforge.net/DTD/sodipodi-0.dtd"
   xmlns:inkscape="http://www.inkscape.org/namespaces/inkscape"
   width="96"
   height="96"
   id="svg3082"
   sodipodi:version="0.32"
   inkscape:version="0.46"
   version="1.0"
   sodipodi:docname="mos_en.svg"
   inkscape:output_extension="org.inkscape.output.svg.inkscape">
  <defs
     id="defs3084">
    <inkscape:perspective
       sodipodi:type="inkscape:persp3d"
       inkscape:vp_x="0 : 32 : 1"
       inkscape:vp_y="0 : 1000 : 0"
       inkscape:vp_z="64 : 32 : 1"
       inkscape:persp3d-origin="32 : 21.333333 : 1"
       id="perspective3090" />
  </defs>
  <sodipodi:namedview
     id="base"
     pagecolor="#ffffff"
     bordercolor="#666666"
     borderopacity="1.0"
     inkscape:pageopacity="0.0"
     inkscape:pageshadow="2"
     inkscape:zoom="5.5"
     inkscape:cx="46.672936"
     inkscape:cy="38.657202"
     inkscape:current-layer="layer1"
     showgrid="true"
     inkscape:document-units="px"
     inkscape:grid-bbox="true"
     showguides="true"
     inkscape:guide-bbox="true"
     inkscape:window-width="1280"
     inkscape:window-height="740"
     inkscape:window-x="-4"
     inkscape:window-y="-4">
    <sodipodi:guide
       orientation="0,1"
       position="-59.272727,48"
       id="guide3100" />
    <sodipodi:guide
       orientation="1,0"
       position="48,77.454545"
       id="guide3102" />
    <sodipodi:guide
       orientation="0,1"
       position="59.011275,77.653181"
       id="guide3104" />
    <sodipodi:guide
       orientation="0,1"
       position="62.996786,37.412377"
       id="guide3106" />
    <sodipodi:guide
       orientation="0,1"
       position="-8.0909091,70"
       id="guide3241" />
    <sodipodi:guide
       orientation="0,1"
       position="9.8181818,30"
       id="guide3243" />
  </sodipodi:namedview>
  <metadata
     id="metadata3087">
    <rdf:RDF>
      <cc:Work
         rdf:about="">
        <dc:format>image/svg+xml</dc:format>
        <dc:type
           rdf:resource="http://purl.org/dc/dcmitype/StillImage" />
      </cc:Work>
    </rdf:RDF>
  </metadata>
  <g
     id="layer1"
     inkscape:label="Layer 1"
     inkscape:groupmode="layer">
    <g
       transform="matrix(0.6646584,0,0,0.6646584,-700.51099,-48.143921)"
       style="opacity:1;display:inline"
       id="g2818">
      <path
         transform="matrix(-2,0,0,-2.666666,1955.4165,399.45483)"
         d="M 435.82676,100.86611 A 14.173228,10.629921 0 1 1 407.48031,100.86611 A 14.173228,10.629921 0 1 1 435.82676,100.86611 z"
         sodipodi:ry="10.629921"
         sodipodi:rx="14.173228"
         sodipodi:cy="100.86611"
         sodipodi:cx="421.65353"
         id="path5162"
         style="fill:none;fill-opacity:0.69090911;fill-rule:nonzero;stroke:#000000;stroke-width:1.53429651;stroke-linecap:square;stroke-linejoin:miter;marker:none;marker-start:none;marker-mid:none;marker-end:none;stroke-miterlimit:4;stroke-dasharray:none;stroke-dashoffset:0;stroke-opacity:1;visibility:visible;display:inline;overflow:visible"
         sodipodi:type="arc" />
      <path
         sodipodi:nodetypes="ccc"
         d="M 1105.0236,116.30517 L 1105.0236,144.65163 L 1055.857,144.65163"
         style="fill:none;fill-opacity:0.75;fill-rule:evenodd;stroke:#000000;stroke-width:3.5433073;stroke-linecap:square;stroke-linejoin:miter;marker-end:none;stroke-miterlimit:4;stroke-opacity:1;display:inline"
         id="path5164" />
      <g
         transform="matrix(2,0,0,2,-117.8567,-211.88789)"
         id="g5166"
         style="stroke:#000000;stroke-width:1.0629921;stroke-miterlimit:4;stroke-dasharray:none;display:inline">
        <path
           id="path5168"
           d="M 621.59173,176.49809 L 618.52677,178.26974 L 618.52677,174.72644 L 621.59173,176.49809 z"
           style="fill-rule:evenodd;stroke:#000000;stroke-width:1.0629921;marker-start:none;stroke-miterlimit:4;stroke-dasharray:none" />
      </g>
      <path
         id="path5170"
         d="M 1126.2832,215.12281 L 1126.2834,141.1083 L 1112.1102,141.1083"
         style="fill:none;fill-opacity:0.75;fill-rule:evenodd;stroke:#000000;stroke-width:3.54330707;stroke-linecap:square;stroke-linejoin:miter;stroke-miterlimit:4;stroke-dasharray:none;stroke-opacity:1;display:inline"
         sodipodi:nodetypes="ccc" />
      <path
         sodipodi:nodetypes="ccc"
         id="path5172"
         d="M 1112.1102,119.84846 L 1126.2835,119.84846 L 1126.2835,74.154867"
         style="fill:none;fill-opacity:0.75;fill-rule:evenodd;stroke:#000000;stroke-width:3.54330707;stroke-linecap:square;stroke-linejoin:miter;stroke-miterlimit:4;stroke-dasharray:none;stroke-opacity:1;display:inline" />
      <path
         sodipodi:nodetypes="cc"
         id="path5174"
         d="M 1112.1102,116.30517 L 1112.1102,144.65163"
         style="fill:none;fill-opacity:0.75;fill-rule:evenodd;stroke:#000000;stroke-width:4.96062994;stroke-linecap:square;stroke-linejoin:miter;stroke-miterlimit:4;stroke-dasharray:none;stroke-opacity:1;display:inline" />
    </g>
    <g
       id="g3281">
      <text
         sodipodi:linespacing="125%"
         id="text3271"
         y="13.272727"
         x="52.545452"
         style="font-size:20px;font-style:normal;font-variant:normal;font-weight:normal;font-stretch:normal;text-align:start;line-height:125%;writing-mode:lr-tb;text-anchor:start;fill:#000000;fill-opacity:1;stroke:none;stroke-width:1px;stroke-linecap:butt;stroke-linejoin:miter;stroke-opacity:1;font-family:Arial;-inkscape-font-specification:Arial"
         xml:space="preserve"><tspan
           y="13.272727"
           x="52.545452"
           id="name"
           sodipodi:role="line"></tspan></text>
      <text
         sodipodi:linespacing="125%"
         id="text3277"
         y="86.458275"
         x="50.753727"
         style="font-size:20px;font-style:normal;font-variant:normal;font-weight:normal;font-stretch:normal;text-align:start;line-height:125%;writing-mode:lr-tb;text-anchor:start;fill:#000000;fill-opacity:1;stroke:none;stroke-width:1px;stroke-linecap:butt;stroke-linejoin:miter;stroke-opacity:1;font-family:Arial;-inkscape-font-specification:Arial"
         xml:space="preserve"><tspan
           y="86.458275"
           x="50.753727"
           id="value"
           sodipodi:role="line"></tspan></text>
    </g>
    <path
       style="fill:#000000;fill-opacity:0;stroke:none;stroke-opacity:1"
       d="M 35.202569,55.800778 C 31.449914,54.949319 27.530533,52.682319 25.475724,50.174696 L 24.794044,49.342798 L 29.988034,49.342798 L 35.182027,49.342798 L 35.182027,38.615525 L 35.182027,27.888252 L 33.9093,27.888252 L 32.636573,27.888252 L 32.636573,37.342798 L 32.636573,46.797343 L 27.863845,46.795329 L 23.091118,46.793309 L 22.609716,45.658965 C 21.524244,43.101243 21.14618,41.193138 21.159422,38.339289 C 21.19704,30.231678 26.876064,23.264176 34.9613,21.405985 C 35.928856,21.183616 37.096907,21.085256 38.727482,21.088839 C 41.424265,21.094767 43.363414,21.483003 45.525987,22.449967 L 46.818391,23.027849 L 46.818391,26.639867 L 46.818391,30.251889 L 43.644218,30.251889 L 40.470047,30.251889 L 40.416945,28.842798 L 40.363845,27.433707 L 38.682027,27.381427 L 37.000209,27.329154 L 37.000209,38.51779 L 37.000209,49.706434 L 38.727482,49.706434 L 40.454754,49.706434 L 40.454754,48.342798 L 40.454754,46.979161 L 41.537351,46.979161 L 42.61996,46.979161 L 42.673714,48.147236 L 42.727482,49.315316 L 44.272936,48.401752 C 45.122936,47.899294 46.043391,47.371558 46.318391,47.229007 L 46.818391,46.969823 L 46.818391,50.591521 L 46.818391,54.213219 L 45.591118,54.708876 C 43.026653,55.744589 42.161491,55.91795 39.182027,55.993143 C 37.151516,56.044387 36.039273,55.990621 35.202569,55.800778 z"
       id="path3313" />
    <path
       style="fill:#000000;fill-opacity:0;stroke:none;stroke-opacity:1"
       d="M 49.363845,48.446085 L 49.363845,44.433707 L 48.150822,44.433707 C 46.98782,44.433707 46.853874,44.384972 44.902613,43.251889 C 43.783264,42.601889 42.815484,42.07007 42.751998,42.07007 C 42.688516,42.07007 42.636573,42.601889 42.636573,43.251889 L 42.636573,44.433707 L 41.545664,44.433707 L 40.454754,44.433707 L 40.454754,38.615525 L 40.454754,32.797343 L 44.9093,32.797343 L 49.363845,32.797343 L 49.363845,28.797343 C 49.363845,26.597343 49.431151,24.797343 49.513413,24.797343 C 49.760931,24.797343 52.527609,27.732814 53.167184,28.674032 C 53.999973,29.899579 55.283209,32.679558 55.616045,33.979161 C 56.932373,39.119027 55.997245,44.415699 53.032016,48.615525 C 52.098413,49.937841 50.622787,51.562023 49.864393,52.102047 L 49.363845,52.45847 L 49.363845,48.446085 z"
       id="path3319" />
  </g>
  <g
     inkscape:groupmode="layer"
     id="layer2">
    <rect
       style="fill:#000000;fill-opacity:0;stroke:none;stroke-opacity:1"
       id="pin2"
       width="19.941586"
       height="43.735035"
       x="0.1065067"
       y="26.10437"
       inkscape:label="#rect3237" />
    <rect
       style="fill:#000000;fill-opacity:0;stroke:none;stroke-opacity:1"
       id="pin3"
       width="43.909092"
       height="21"
       x="26"
       y="-5.0653139e-08"
       inkscape:label="#rect3247" />
    <rect
       style="fill:#000000;fill-opacity:0;stroke:none;stroke-opacity:1"
       id="pin1"
       width="43.950607"
       height="26.039127"
       x="25.979239"
       y="69.84407"
       inkscape:label="#rect3245" />
  </g>
</svg>
