<?xml version="1.0" encoding="UTF-8" standalone="no"?>
<!-- Created with Inkscape (http://www.inkscape.org/) -->
<svg
   xmlns:dc="http://purl.org/dc/elements/1.1/"
   xmlns:cc="http://creativecommons.org/ns#"
   xmlns:rdf="http://www.w3.org/1999/02/22-rdf-syntax-ns#"
   xmlns:svg="http://www.w3.org/2000/svg"
   xmlns="http://www.w3.org/2000/svg"
   xmlns:sodipodi="http://sodipodi.sourceforge.net/DTD/sodipodi-0.dtd"
   xmlns:inkscape="http://www.inkscape.org/namespaces/inkscape"
   width="96"
   height="96"
   id="svg3287"
   sodipodi:version="0.32"
   inkscape:version="0.46"
   version="1.0"
   sodipodi:docname="mos_dn.svg"
   inkscape:output_extension="org.inkscape.output.svg.inkscape">
  <defs
     id="defs3289">
    <inkscape:perspective
       sodipodi:type="inkscape:persp3d"
       inkscape:vp_x="0 : 32 : 1"
       inkscape:vp_y="0 : 1000 : 0"
       inkscape:vp_z="64 : 32 : 1"
       inkscape:persp3d-origin="32 : 21.333333 : 1"
       id="perspective3295" />
  </defs>
  <sodipodi:namedview
     id="base"
     pagecolor="#ffffff"
     bordercolor="#666666"
     borderopacity="1.0"
     inkscape:pageopacity="0.0"
     inkscape:pageshadow="2"
     inkscape:zoom="7.7781746"
     inkscape:cx="35.787817"
     inkscape:cy="49.356289"
     inkscape:current-layer="layer1"
     showgrid="true"
     inkscape:document-units="px"
     inkscape:grid-bbox="true"
     showguides="true"
     inkscape:guide-bbox="true"
     inkscape:window-width="1280"
     inkscape:window-height="740"
     inkscape:window-x="0"
     inkscape:window-y="26">
    <sodipodi:guide
       orientation="0,1"
       position="4.9090909,37.412"
       id="guide3305" />
    <sodipodi:guide
       orientation="0,1"
       position="19.818182,77.653"
       id="guide3307" />
    <sodipodi:guide
       orientation="1,0"
       position="48,61.272727"
       id="guide3309" />
    <sodipodi:guide
       orientation="0,1"
       position="-12,48"
       id="guide3311" />
  </sodipodi:namedview>
  <metadata
     id="metadata3292">
    <rdf:RDF>
      <cc:Work
         rdf:about="">
        <dc:format>image/svg+xml</dc:format>
        <dc:type
           rdf:resource="http://purl.org/dc/dcmitype/StillImage" />
      </cc:Work>
    </rdf:RDF>
  </metadata>
  <g
     id="layer1"
     inkscape:label="Layer 1"
     inkscape:groupmode="layer">
    <g
       transform="matrix(0.660356,0,0,0.660356,-695.61814,-98.998125)"
       style="opacity:1;display:inline"
       id="g2827">
      <path
         transform="matrix(-2,0,0,-2.666666,1955.4175,477.40756)"
         d="M 435.82676,100.86611 A 14.173228,10.629921 0 1 1 407.48031,100.86611 A 14.173228,10.629921 0 1 1 435.82676,100.86611 z"
         sodipodi:ry="10.629921"
         sodipodi:rx="14.173228"
         sodipodi:cy="100.86611"
         sodipodi:cx="421.65353"
         id="path5176"
         style="fill:none;fill-opacity:0.69090911;fill-rule:nonzero;stroke:#000000;stroke-width:1.53429651;stroke-linecap:square;stroke-linejoin:miter;marker:none;marker-start:none;marker-mid:none;marker-end:none;stroke-miterlimit:4;stroke-dasharray:none;stroke-dashoffset:0;stroke-opacity:1;visibility:visible;display:inline;overflow:visible"
         sodipodi:type="arc" />
      <path
         sodipodi:nodetypes="ccc"
         d="M 1104.9263,194.25792 L 1104.9263,222.60436 L 1055.1759,222.60436"
         style="fill:none;fill-opacity:0.75;fill-rule:evenodd;stroke:#000000;stroke-width:3.5433073;stroke-linecap:square;stroke-linejoin:miter;marker-end:none;stroke-miterlimit:4;stroke-opacity:1;display:inline"
         id="path5178" />
      <path
         sodipodi:nodetypes="ccc"
         id="path5180"
         d="M 1126.2832,293.51891 L 1126.2835,219.06105 L 1112.1102,219.06105"
         style="fill:none;fill-opacity:0.75;fill-rule:evenodd;stroke:#000000;stroke-width:3.54330707;stroke-linecap:square;stroke-linejoin:miter;marker-end:none;stroke-miterlimit:4;stroke-dasharray:none;stroke-opacity:1;display:inline" />
      <path
         sodipodi:nodetypes="ccc"
         id="path5184"
         d="M 1112.1102,197.80121 L 1126.2835,197.80121 L 1126.2835,151.732"
         style="fill:none;fill-opacity:0.75;fill-rule:evenodd;stroke:#000000;stroke-width:3.54330707;stroke-linecap:square;stroke-linejoin:miter;stroke-miterlimit:4;stroke-dasharray:none;stroke-opacity:1;display:inline" />
      <path
         sodipodi:nodetypes="cc"
         id="path5186"
         d="M 1112.1102,194.25792 L 1112.1102,222.60436"
         style="fill:none;fill-opacity:0.75;fill-rule:evenodd;stroke:#000000;stroke-width:4.96062994;stroke-linecap:square;stroke-linejoin:miter;stroke-miterlimit:4;stroke-dasharray:none;stroke-opacity:1;display:inline" />
      <g
         transform="matrix(2,0,0,2,-36.899199,-133.93515)"
         id="g5218"
         style="stroke:#000000;stroke-width:1.0629921;stroke-miterlimit:4;stroke-dasharray:none;display:inline">
        <path
           id="path5220"
           d="M 574.98306,176.4981 L 578.04802,174.72645 L 578.04802,178.26975 L 574.98306,176.4981 z"
           style="fill-rule:evenodd;stroke:#000000;stroke-width:1.0629921;marker-start:none;stroke-miterlimit:4;stroke-dasharray:none" />
      </g>
    </g>
    <g
       id="g3393">
      <text
         sodipodi:linespacing="125%"
         id="text3381"
         y="12.175705"
         x="51.425945"
         style="font-size:15px;font-style:normal;font-variant:normal;font-weight:normal;font-stretch:normal;text-align:start;line-height:125%;writing-mode:lr-tb;text-anchor:start;fill:#000000;fill-opacity:1;stroke:none;stroke-width:1px;stroke-linecap:butt;stroke-linejoin:miter;stroke-opacity:1;font-family:Arial;-inkscape-font-specification:Arial"
         xml:space="preserve"><tspan
           y="12.175705"
           x="51.425945"
           id="name"
           sodipodi:role="line" /></text>
      <text
         sodipodi:linespacing="125%"
         id="text3385"
         y="84.600677"
         x="50.518116"
         style="font-size:15px;font-style:normal;font-variant:normal;font-weight:normal;font-stretch:normal;text-align:start;line-height:125%;writing-mode:lr-tb;text-anchor:start;fill:#000000;fill-opacity:1;stroke:none;stroke-width:1px;stroke-linecap:butt;stroke-linejoin:miter;stroke-opacity:1;font-family:Arial;-inkscape-font-specification:Arial"
         xml:space="preserve"><tspan
           y="84.600677"
           x="50.518116"
           id="value"
           sodipodi:role="line" /></text>
    </g>
    <path
       style="fill:#ffffff;fill-opacity:0;stroke:none;stroke-opacity:1"
       d="M 36.963728,56.01698 C 33.932742,55.711333 30.701185,54.439457 28.241059,52.583911 C 27.408048,51.955612 24.962655,49.532476 24.962655,49.335343 C 24.962655,49.262613 26.997059,49.215008 30.10525,49.215008 L 35.247845,49.215008 L 35.247845,38.608407 L 35.247845,28.001805 L 34.026478,28.001805 L 32.805112,28.001805 L 32.805112,37.38704 L 32.805112,46.772276 L 28.050824,46.772276 L 23.296538,46.772276 L 23.039934,46.269293 C 21.337748,42.93273 20.867539,38.293094 21.83356,34.365766 C 23.21182,28.762474 27.602629,23.999649 33.126524,22.115983 C 34.887241,21.515572 36.035443,21.308537 38.060407,21.226337 C 41.016705,21.106334 43.062506,21.49012 45.886587,22.694511 L 46.947248,23.146854 L 46.947248,26.795697 L 46.947248,30.444537 L 43.733126,30.444537 L 40.519004,30.444537 L 40.519004,29.030324 L 40.519004,27.61611 L 38.783378,27.61611 L 37.047753,27.61611 L 37.047753,38.67642 L 37.047753,49.73673 L 38.751237,49.700858 L 40.454722,49.664985 L 40.491846,48.463916 C 40.523247,47.448109 40.559296,47.274486 40.725582,47.338299 C 40.833731,47.379799 41.616112,47.819033 42.464204,48.314379 C 43.312295,48.809726 44.060465,49.215008 44.126792,49.215008 C 44.193118,49.215008 44.247385,48.694321 44.247385,48.057925 L 44.247385,46.900841 L 45.597317,46.900841 L 46.947248,46.900841 L 46.947248,50.508719 L 46.947248,54.116599 L 46.101689,54.499994 C 43.274895,55.781723 40.008341,56.324002 36.963728,56.01698 z"
       id="path3205" />
    <path
       style="fill:#ffffff;fill-opacity:0;stroke:none;stroke-opacity:1"
       d="M 49.38998,48.448143 L 49.38998,44.458108 L 46.82335,44.458108 L 44.256693,44.458108 L 44.219911,43.23465 L 44.183103,42.011193 L 42.402145,43.041803 C 41.42261,43.608639 40.598187,44.072414 40.570096,44.072414 C 40.541992,44.072414 40.519004,41.555756 40.519004,38.479842 L 40.519004,32.88727 L 44.952692,32.88727 L 49.386367,32.88727 L 49.420321,28.813112 L 49.454263,24.738957 L 50.662065,25.888262 C 54.32934,29.377934 56.204227,33.681884 56.203224,38.608407 C 56.202633,41.530948 55.613921,44.002796 54.309643,46.559219 C 53.423266,48.296537 52.363236,49.739521 50.964887,51.112375 C 49.227101,52.818472 49.38998,53.094021 49.38998,48.448142 L 49.38998,48.448143 z"
       id="path3207" />
  </g>
  <g
     inkscape:groupmode="layer"
     id="layer3">
    <rect
       style="fill:#000000;fill-opacity:0;stroke:none;stroke-opacity:1"
       id="pin2"
       width="20.05612"
       height="44.997707"
       x="-1.4830544e-08"
       y="26.060711"
       inkscape:label="#rect3369" />
    <rect
       style="fill:#000000;fill-opacity:0;stroke:none;stroke-opacity:1"
       id="pin3"
       width="43.969185"
       height="20.05612"
       x="25.970104"
       y="-0.037957404"
       inkscape:label="#rect3373" />
    <rect
       style="fill:#000000;fill-opacity:0;stroke:none;stroke-opacity:1"
       id="pin1"
       width="43.969185"
       height="19.927555"
       x="25.970102"
       y="75.943878"
       inkscape:label="#rect3375" />
    <path
       style="fill:#000000;fill-opacity:0;stroke:none;stroke-opacity:1"
       d="M 49.359677,48.457947 L 49.325698,44.432853 L 46.786542,44.397992 L 44.247385,44.363136 L 44.247385,43.208767 C 44.247385,42.573868 44.213753,42.054403 44.172651,42.054403 C 44.131548,42.054403 43.336053,42.495581 42.404884,43.034798 C 41.473714,43.574015 40.668461,44.040264 40.615428,44.070905 C 40.562395,44.101545 40.519004,41.577617 40.519004,38.462174 L 40.519004,32.797732 L 44.954492,32.797732 L 49.38998,32.797732 L 49.38998,28.803468 L 49.38998,24.8092 L 49.777333,25.085033 C 50.519448,25.613455 52.175839,27.387738 52.978406,28.513926 C 54.545753,30.71328 55.699134,33.59837 56.080702,36.274086 C 56.27936,37.667103 56.172934,40.874357 55.884627,42.182967 C 55.36421,44.545181 54.335382,46.878644 52.975526,48.78101 C 52.238721,49.811768 50.429067,51.745401 49.745372,52.232478 L 49.39367,52.483042 L 49.359677,48.457947 z"
       id="path3377" />
    <path
       style="fill:#000000;fill-opacity:0;stroke:none;stroke-opacity:1"
       d="M 35.807946,55.865937 C 32.401927,55.293805 28.961458,53.493485 26.422958,50.954984 C 24.525703,49.057733 24.101268,49.254035 30.100727,49.254035 L 35.247845,49.254035 L 35.247845,38.647434 L 35.247845,28.040832 L 34.026478,28.040832 L 32.805112,28.040832 L 32.805112,37.426067 L 32.805112,46.811303 L 28.074993,46.811303 L 23.344876,46.811303 L 22.98732,46.08226 C 22.093556,44.25991 21.548773,42.214096 21.376999,40.035043 C 20.614496,30.362325 27.849247,21.928198 37.49773,21.241812 C 40.500151,21.028224 43.314866,21.526407 45.95087,22.737963 L 46.947248,23.195916 L 46.947248,26.775455 L 46.947248,30.354999 L 43.737471,30.354999 L 40.527708,30.354999 L 40.49121,28.972927 L 40.454722,27.590855 L 38.783378,27.590855 L 37.112035,27.590855 L 37.07918,38.615292 L 37.046317,49.63973 L 38.778003,49.63973 L 40.50969,49.63973 L 40.546491,48.430526 L 40.583287,47.221319 L 42.318912,48.234344 C 43.273506,48.791506 44.097929,49.248868 44.150962,49.250702 C 44.203995,49.252536 44.247385,48.733348 44.247385,48.096951 L 44.247385,46.939868 L 45.597316,46.939868 L 46.947248,46.939868 L 46.947248,50.521793 L 46.947248,54.103718 L 45.92769,54.569773 C 44.735868,55.114567 42.644284,55.733253 41.330043,55.929742 C 40.081296,56.116441 37.093738,56.081921 35.807949,55.865937 L 35.807946,55.865937 z"
       id="path3379" />
  </g>
</svg>
