<?xml version="1.0" encoding="UTF-8" standalone="no"?>
<!-- Created with Inkscape (http://www.inkscape.org/) -->
<svg
   xmlns:dc="http://purl.org/dc/elements/1.1/"
   xmlns:cc="http://creativecommons.org/ns#"
   xmlns:rdf="http://www.w3.org/1999/02/22-rdf-syntax-ns#"
   xmlns:svg="http://www.w3.org/2000/svg"
   xmlns="http://www.w3.org/2000/svg"
   xmlns:sodipodi="http://sodipodi.sourceforge.net/DTD/sodipodi-0.dtd"
   xmlns:inkscape="http://www.inkscape.org/namespaces/inkscape"
   width="96"
   height="96"
   id="svg3092"
   sodipodi:version="0.32"
   inkscape:version="0.46"
   version="1.0"
   sodipodi:docname="mos_ep.svg"
   inkscape:output_extension="org.inkscape.output.svg.inkscape">
  <defs
     id="defs3094">
    <inkscape:perspective
       sodipodi:type="inkscape:persp3d"
       inkscape:vp_x="0 : 526.18109 : 1"
       inkscape:vp_y="0 : 1000 : 0"
       inkscape:vp_z="744.09448 : 526.18109 : 1"
       inkscape:persp3d-origin="372.04724 : 350.78739 : 1"
       id="perspective3100" />
  </defs>
  <sodipodi:namedview
     id="base"
     pagecolor="#ffffff"
     bordercolor="#666666"
     borderopacity="1.0"
     gridtolerance="10000"
     guidetolerance="10"
     objecttolerance="10"
     inkscape:pageopacity="0.0"
     inkscape:pageshadow="2"
     inkscape:zoom="5.6"
     inkscape:cx="26.521716"
     inkscape:cy="60.512577"
     inkscape:document-units="px"
     inkscape:current-layer="layer1"
     showgrid="false"
     showguides="true"
     inkscape:guide-bbox="true"
     inkscape:window-width="1280"
     inkscape:window-height="740"
     inkscape:window-x="0"
     inkscape:window-y="26">
    <sodipodi:guide
       orientation="0,1"
       position="9.1071429,48.035714"
       id="guide3112" />
    <sodipodi:guide
       orientation="1,0"
       position="48.035714,92.678572"
       id="guide3114" />
    <sodipodi:guide
       orientation="0,1"
       position="52.5,77.678572"
       id="guide3226" />
    <sodipodi:guide
       orientation="0,1"
       position="52.678572,37.5"
       id="guide3228" />
  </sodipodi:namedview>
  <metadata
     id="metadata3097">
    <rdf:RDF>
      <cc:Work
         rdf:about="">
        <dc:format>image/svg+xml</dc:format>
        <dc:type
           rdf:resource="http://purl.org/dc/dcmitype/StillImage" />
      </cc:Work>
    </rdf:RDF>
  </metadata>
  <g
     inkscape:label="Layer 1"
     inkscape:groupmode="layer"
     id="layer1">
    <g
       style="opacity:1;display:inline"
       id="g5409"
       transform="matrix(1.3335789,0,0,1.3335789,-749.88548,-83.511471)">
      <path
         transform="matrix(-1,0,0,-1.333333,1012.8972,225.99029)"
         d="M 435.82676,100.86611 A 14.173228,10.629921 0 1 1 407.48031,100.86611 A 14.173228,10.629921 0 1 1 435.82676,100.86611 z"
         sodipodi:ry="10.629921"
         sodipodi:rx="14.173228"
         sodipodi:cy="100.86611"
         sodipodi:cx="421.65353"
         id="path5188"
         style="fill:none;fill-opacity:0.69090911;fill-rule:nonzero;stroke:#000000;stroke-width:1.53429651;stroke-linecap:square;stroke-linejoin:miter;marker:none;marker-start:none;marker-mid:none;marker-end:none;stroke-miterlimit:4;stroke-dasharray:none;stroke-dashoffset:0;stroke-opacity:1;visibility:visible;display:inline;overflow:visible"
         sodipodi:type="arc" />
      <path
         sodipodi:nodetypes="ccs"
         d="M 587.70078,84.41543 L 587.70078,98.58866 L 563.02125,98.58866"
         style="fill:none;fill-opacity:0.75;fill-rule:evenodd;stroke:#000000;stroke-width:1.77165365;stroke-linecap:square;stroke-linejoin:miter;marker-end:none;stroke-miterlimit:4;stroke-opacity:1;display:inline"
         id="path5190" />
      <path
         sodipodi:nodetypes="cc"
         id="path5192"
         d="M 591.24409,91.50204 L 594.7874,91.50204"
         style="fill:none;fill-opacity:0.75;fill-rule:evenodd;stroke:#000000;stroke-width:1.77165353;stroke-linecap:square;stroke-linejoin:miter;marker-end:none;stroke-miterlimit:4;stroke-dasharray:none;stroke-opacity:1;display:inline" />
      <path
         sodipodi:nodetypes="ccc"
         id="path5194"
         d="M 598.3307,133.99081 L 598.3307,98.58867 L 591.24409,98.58867"
         style="fill:none;fill-opacity:0.75;fill-rule:evenodd;stroke:#000000;stroke-width:1.77165353;stroke-linecap:square;stroke-linejoin:miter;stroke-miterlimit:4;stroke-dasharray:none;stroke-opacity:1;display:inline" />
      <path
         sodipodi:nodetypes="ccc"
         id="path5196"
         d="M 591.24409,84.41543 L 598.3307,84.41543 L 598.3307,63.474899"
         style="fill:none;fill-opacity:0.75;fill-rule:evenodd;stroke:#000000;stroke-width:1.77165353;stroke-linecap:square;stroke-linejoin:miter;stroke-miterlimit:4;stroke-dasharray:none;stroke-opacity:1;display:inline" />
      <path
         sodipodi:nodetypes="cc"
         id="path5198"
         d="M 591.24409,80.87213 L 591.24409,102.13198"
         style="fill:none;fill-opacity:0.75;fill-rule:evenodd;stroke:#000000;stroke-width:2.48031497;stroke-linecap:butt;stroke-linejoin:miter;stroke-miterlimit:4;stroke-dasharray:4.96062994, 2.48031497;stroke-dashoffset:6.69685042;stroke-opacity:1;display:inline" />
      <path
         sodipodi:nodetypes="ccc"
         id="path5200"
         d="M 598.3307,98.58866 L 598.3307,91.50204 L 594.7874,91.50204"
         style="fill:none;fill-opacity:0.75;fill-rule:evenodd;stroke:#000000;stroke-width:1.77165353;stroke-linecap:square;stroke-linejoin:miter;stroke-miterlimit:4;stroke-dasharray:none;stroke-opacity:1;display:inline" />
      <g
         transform="translate(-23.73935,-120.42913)"
         id="g5222"
         style="stroke:#000000;stroke-width:1.0629921;stroke-miterlimit:4;stroke-dasharray:none;display:inline">
        <path
           id="path5224"
           d="M 621.59172,211.93116 L 618.52676,213.70281 L 618.52676,210.15951 L 621.59172,211.93116 z"
           style="fill-rule:evenodd;stroke:#000000;stroke-width:1.0629921;marker-start:none;stroke-miterlimit:4;stroke-dasharray:none" />
      </g>
    </g>
    <g
       id="g4040"
       transform="translate(-51.071429,0)">
      <text
         sodipodi:linespacing="125%"
         id="text4032"
         y="11.178572"
         x="54.107136"
         style="font-size:15px;font-style:normal;font-variant:normal;font-weight:normal;font-stretch:normal;text-align:start;line-height:125%;writing-mode:lr-tb;text-anchor:start;fill:#000000;fill-opacity:1;stroke:none;stroke-width:1px;stroke-linecap:butt;stroke-linejoin:miter;stroke-opacity:1;font-family:Arial;-inkscape-font-specification:Arial"
         xml:space="preserve"><tspan
           y="11.178572"
           x="54.107136"
           id="name"
           sodipodi:role="line"></tspan></text>
      <text
         sodipodi:linespacing="125%"
         id="text4036"
         y="70.47126"
         x="53.208015"
         style="font-size:15px;font-style:normal;font-variant:normal;font-weight:normal;font-stretch:normal;text-align:start;line-height:125%;writing-mode:lr-tb;text-anchor:start;fill:#000000;fill-opacity:1;stroke:none;stroke-width:1px;stroke-linecap:butt;stroke-linejoin:miter;stroke-opacity:1;font-family:Arial;-inkscape-font-specification:Arial"
         xml:space="preserve"><tspan
           y="70.47126"
           x="53.208015"
           id="value"
           sodipodi:role="line" /></text>
    </g>
    <path
       style="fill:#ffffff;fill-opacity:0;stroke:none;stroke-opacity:1"
       d="M 36.712359,56.017448 C 32.496661,55.574303 28.777921,53.715091 25.768975,50.546227 L 24.611002,49.326709 L 29.834216,49.279373 L 35.05743,49.232028 L 35.05743,38.520439 L 35.05743,27.808852 L 33.80743,27.808852 L 32.55743,27.808852 L 32.55743,37.273137 L 32.55743,46.737423 L 27.76907,46.737423 L 22.98072,46.737423 L 22.657505,46.06778 C 21.157243,42.95955 20.619653,39.037344 21.221137,35.58818 C 22.701523,27.098998 29.894923,20.994077 38.450287,20.966069 C 41.488859,20.956123 43.721091,21.430312 45.99493,22.568762 L 46.843145,22.993439 L 46.843145,25.401146 L 46.843145,27.808852 L 43.539573,27.808852 L 40.236002,27.808852 L 40.236002,26.558852 L 40.236002,25.308852 L 38.539573,25.308852 L 36.843145,25.308852 L 36.843145,28.701709 L 36.843145,32.094566 L 38.539573,32.094566 L 40.236002,32.094566 L 40.236002,31.201709 L 40.236002,30.308852 L 44.789573,30.308852 L 49.343145,30.308852 L 49.343145,27.435082 L 49.343145,24.561307 L 50.238234,25.31071 C 52.459823,27.170735 54.729752,30.816723 55.629091,33.969566 C 55.98343,35.211768 56.036591,35.805821 56.036591,38.523137 C 56.036591,41.243828 55.983948,41.830539 55.629734,43.057964 C 54.736591,46.152873 53.192877,48.75886 50.886198,51.065644 L 49.43243,52.51948 L 49.385877,44.896303 L 49.339305,37.273137 L 48.090645,37.273137 C 46.878395,37.273137 46.783573,37.239298 44.838287,36.112423 C 43.736252,35.47403 42.772216,34.951709 42.696002,34.951709 C 42.619787,34.951709 42.55743,35.47403 42.55743,36.112423 L 42.55743,37.273137 L 41.396716,37.273137 L 40.236002,37.273137 L 40.236002,36.201709 L 40.236002,35.13028 L 38.539573,35.13028 L 36.843145,35.13028 L 36.843145,38.523137 L 36.843145,41.915994 L 38.539573,41.915994 L 40.236002,41.915994 L 40.236002,40.844566 L 40.236002,39.773137 L 41.396716,39.773137 L 42.55743,39.773137 L 42.55743,40.933852 C 42.55743,41.572244 42.609805,42.094566 42.673805,42.094566 C 42.781859,42.094566 44.929591,40.897243 46.262787,40.093769 L 46.843145,39.744009 L 46.843145,43.240714 L 46.843145,46.737423 L 43.539573,46.737423 L 40.236002,46.737423 L 40.236002,45.933852 L 40.236002,45.13028 L 38.539573,45.13028 L 36.843145,45.13028 L 36.843145,48.523137 L 36.843145,51.915994 L 38.539573,51.915994 L 40.236002,51.915994 L 40.236002,50.576709 L 40.236002,49.237423 L 43.539573,49.237423 L 46.843145,49.237423 L 46.843145,51.645128 L 46.843145,54.052835 L 45.960555,54.500082 C 44.663252,55.157468 42.302823,55.793607 40.354859,56.010818 C 39.413305,56.115803 38.499145,56.190798 38.323395,56.177462 C 38.147645,56.16413 37.42268,56.092123 36.712359,56.017453 L 36.712359,56.017448 z"
       id="path3597" />
  </g>
  <g
     inkscape:groupmode="layer"
     id="layer2">
    <g
       id="g4027">
      <rect
         inkscape:label="#rect3251"
         rx="0"
         y="0.10714266"
         x="29.821428"
         height="18.214285"
         width="39.285713"
         id="pin3"
         style="fill:#000000;fill-opacity:0;stroke:none;stroke-opacity:1" />
      <rect
         inkscape:label="#rect4023"
         rx="0"
         y="75.892853"
         x="28.357143"
         height="20"
         width="39.285713"
         id="pin1"
         style="fill:#000000;fill-opacity:0;stroke:none;stroke-opacity:1" />
      <rect
         inkscape:label="#rect4025"
         rx="0"
         y="25.821428"
         x="0.42857194"
         height="42.321426"
         width="21.42857"
         id="pin2"
         style="fill:#000000;fill-opacity:0;stroke:none;stroke-opacity:1" />
    </g>
  </g>
</svg>
