<?xml version="1.0" encoding="UTF-8" standalone="no"?>
<!-- Created with Inkscape (http://www.inkscape.org/) -->
<svg xmlns:svg="http://www.w3.org/2000/svg" xmlns="http://www.w3.org/2000/svg" version="1.0" width="330" height="410" id="svg3650">
  <defs id="defs3652">
    <marker refX="0" refY="0" orient="auto" style="overflow: visible;" id="Dot_m">
      <path d="M -2.5,-1 C -2.5,1.76 -4.74,4 -7.5,4 C -10.26,4 -12.5,1.76 -12.5,-1 C -12.5,-3.76 -10.26,-6 -7.5,-6 C -4.74,-6 -2.5,-3.76 -2.5,-1 z " transform="matrix(0.4, 0, 0, 0.4, 2.8502, 0.4)" style="fill-rule: evenodd; stroke: rgb(0, 0, 0); stroke-width: 1pt; marker-start: none; marker-end: none;" id="path3499"/>
    </marker>
  </defs>
  <g id="layer1">
    <g transform="translate(-14.4518, -18.6425)" id="g3281">
      <g transform="translate(16.8968, 92.2827)" id="g3150">
        <path d="M 128.38621,86.021199 C 128.38621,94.658559 121.38421,101.66056 112.74681,101.66056 C 104.10942,101.66056 97.107422,94.658559 97.107422,86.021199 C 97.107422,77.383799 104.10942,70.381809 112.74681,70.381809 C 121.38421,70.381809 128.38621,77.383799 128.38621,86.021199 z " style="fill: none; fill-opacity: 1; fill-rule: evenodd; stroke: rgb(0, 0, 0); stroke-width: 4.81066; stroke-linecap: butt; stroke-linejoin: miter; stroke-miterlimit: 4; stroke-dasharray: none; stroke-dashoffset: 0pt; stroke-opacity: 1;" id="path2234"/>
        <path d="M 4.9927116,86.021419 L 98.117332,86.021419" style="overflow: visible; marker: none; color: rgb(0, 0, 0); fill: none; fill-opacity: 1; fill-rule: evenodd; stroke: rgb(0, 0, 0); stroke-width: 4.81064; stroke-linecap: butt; stroke-linejoin: round; stroke-miterlimit: 4; stroke-dasharray: none; stroke-dashoffset: 0pt; stroke-opacity: 1; visibility: visible; display: inline;" id="path2236"/>
      </g>
      <g transform="translate(15.5971, 23.3956)" id="g3166">
        <path d="M 224.11293,86.021199 C 224.11293,94.658559 217.11093,101.66056 208.47353,101.66056 C 199.83614,101.66056 192.83414,94.658559 192.83414,86.021199 C 192.83414,77.383799 199.83614,70.381809 208.47353,70.381809 C 217.11093,70.381809 224.11293,77.383799 224.11293,86.021199 z " style="fill: none; fill-opacity: 1; fill-rule: evenodd; stroke: rgb(0, 0, 0); stroke-width: 4.81066; stroke-linecap: butt; stroke-linejoin: miter; stroke-miterlimit: 4; stroke-dasharray: none; stroke-dashoffset: 0pt; stroke-opacity: 1;" id="path2238"/>
        <path d="M 226.40648,86.021419 L 319.5311,86.021419" style="overflow: visible; marker: none; color: rgb(0, 0, 0); fill: none; fill-opacity: 1; fill-rule: evenodd; stroke: rgb(0, 0, 0); stroke-width: 4.81064; stroke-linecap: butt; stroke-linejoin: round; stroke-miterlimit: 4; stroke-dasharray: none; stroke-dashoffset: 0pt; stroke-opacity: 1; visibility: visible; display: inline;" id="path2240"/>
      </g>
      <g transform="translate(15.5971, 27.2949)" id="g3146">
        <path d="M 128.38621,13.234831 C 128.38621,21.872191 121.38421,28.874192 112.74681,28.874192 C 104.10942,28.874192 97.107422,21.872191 97.107422,13.234831 C 97.107422,4.5974314 104.10942,-2.4045586 112.74681,-2.4045586 C 121.38421,-2.4045586 128.38621,4.5974314 128.38621,13.234831 z " style="fill: none; fill-opacity: 1; fill-rule: evenodd; stroke: rgb(0, 0, 0); stroke-width: 4.81066; stroke-linecap: butt; stroke-linejoin: miter; stroke-miterlimit: 4; stroke-dasharray: none; stroke-dashoffset: 0pt; stroke-opacity: 1;" id="path3142"/>
        <path d="M 4.9927116,13.235051 L 98.117332,13.235051" style="overflow: visible; marker: none; color: rgb(0, 0, 0); fill: none; fill-opacity: 1; fill-rule: evenodd; stroke: rgb(0, 0, 0); stroke-width: 4.81064; stroke-linecap: butt; stroke-linejoin: round; stroke-miterlimit: 4; stroke-dasharray: none; stroke-dashoffset: 0pt; stroke-opacity: 1; visibility: visible; display: inline;" id="path3144"/>
      </g>
      <path d="M 208.24487,102.50433 L 113.14609,55.789137" style="overflow: visible; marker: none; opacity: 1; color: rgb(0, 0, 0); fill: none; fill-opacity: 1; fill-rule: evenodd; stroke: rgb(0, 0, 0); stroke-width: 4.75; stroke-linecap: butt; stroke-linejoin: miter; stroke-miterlimit: 4; stroke-dasharray: none; stroke-dashoffset: 0pt; stroke-opacity: 1; visibility: visible; display: inline;" id="path3279"/>
    </g>
    <path d="M 130.83125,381.23909 C 130.83125,389.87645 123.82925,396.87845 115.19185,396.87845 C 106.55446,396.87845 99.55246,389.87645 99.55246,381.23909 C 99.55246,372.60169 106.55446,365.5997 115.19185,365.5997 C 123.82925,365.5997 130.83125,372.60169 130.83125,381.23909 z " style="fill: none; fill-opacity: 1; fill-rule: evenodd; stroke: rgb(0, 0, 0); stroke-width: 4.81066; stroke-linecap: butt; stroke-linejoin: miter; stroke-miterlimit: 4; stroke-dasharray: none; stroke-dashoffset: 0pt; stroke-opacity: 1;" id="path3297"/>
    <path d="M 100.56237,381.23931 L 30.714399,381.23931 L 30.714399,22.194173" style="overflow: visible; color: rgb(0, 0, 0); fill: none; fill-opacity: 1; fill-rule: evenodd; stroke: rgb(0, 0, 0); stroke-width: 4.81064; stroke-linecap: butt; stroke-linejoin: round; marker-start: none; marker-mid: none; marker-end: url(#Dot_m); stroke-miterlimit: 4; stroke-dasharray: none; stroke-dashoffset: 0pt; stroke-opacity: 1; visibility: visible; display: inline;" id="path3299"/>
    <g transform="translate(1.14524, 226.331)" id="g3301">
      <path d="M 224.11293,86.021199 C 224.11293,94.658559 217.11093,101.66056 208.47353,101.66056 C 199.83614,101.66056 192.83414,94.658559 192.83414,86.021199 C 192.83414,77.383799 199.83614,70.381809 208.47353,70.381809 C 217.11093,70.381809 224.11293,77.383799 224.11293,86.021199 z " style="fill: none; fill-opacity: 1; fill-rule: evenodd; stroke: rgb(0, 0, 0); stroke-width: 4.81066; stroke-linecap: butt; stroke-linejoin: miter; stroke-miterlimit: 4; stroke-dasharray: none; stroke-dashoffset: 0pt; stroke-opacity: 1;" id="path3303"/>
      <path d="M 226.40648,86.021419 L 319.5311,86.021419" style="overflow: visible; marker: none; color: rgb(0, 0, 0); fill: none; fill-opacity: 1; fill-rule: evenodd; stroke: rgb(0, 0, 0); stroke-width: 4.81064; stroke-linecap: butt; stroke-linejoin: round; stroke-miterlimit: 4; stroke-dasharray: none; stroke-dashoffset: 0pt; stroke-opacity: 1; visibility: visible; display: inline;" id="path3305"/>
    </g>
    <path d="M 129.53149,243.46492 C 129.53149,252.10228 122.52949,259.10428 113.89209,259.10428 C 105.2547,259.10428 98.2527,252.10228 98.2527,243.46492 C 98.2527,234.82752 105.2547,227.82553 113.89209,227.82553 C 122.52949,227.82553 129.53149,234.82752 129.53149,243.46492 z " style="fill: none; fill-opacity: 1; fill-rule: evenodd; stroke: rgb(0, 0, 0); stroke-width: 4.81066; stroke-linecap: butt; stroke-linejoin: miter; stroke-miterlimit: 4; stroke-dasharray: none; stroke-dashoffset: 0pt; stroke-opacity: 1;" id="path3309"/>
    <path d="M 97.51568,243.32889 L 64.893979,243.32889 L 64.893979,159.22986" style="overflow: visible; color: rgb(0, 0, 0); fill: none; fill-opacity: 1; fill-rule: evenodd; stroke: rgb(0, 0, 0); stroke-width: 4.81064; stroke-linecap: butt; stroke-linejoin: round; marker-start: none; marker-mid: none; marker-end: url(#Dot_m); stroke-miterlimit: 4; stroke-dasharray: none; stroke-dashoffset: 0pt; stroke-opacity: 1; visibility: visible; display: inline;" id="path3311"/>
    <path d="M 193.79307,305.43952 L 98.69429,258.72433" style="overflow: visible; marker: none; color: rgb(0, 0, 0); fill: none; fill-opacity: 1; fill-rule: evenodd; stroke: rgb(0, 0, 0); stroke-width: 4.75; stroke-linecap: butt; stroke-linejoin: miter; stroke-miterlimit: 4; stroke-dasharray: none; stroke-dashoffset: 0pt; stroke-opacity: 1; visibility: visible; display: inline;" id="path3313"/>
    <path d="M 161.16035,400.15698 L 161.16035,7.6815054" style="overflow: visible; marker: none; opacity: 1; color: rgb(0, 0, 0); fill: none; fill-opacity: 1; fill-rule: evenodd; stroke: rgb(0, 0, 0); stroke-width: 4.75; stroke-linecap: butt; stroke-linejoin: miter; stroke-miterlimit: 4; stroke-dasharray: 4.75, 4.75; stroke-dashoffset: 0pt; stroke-opacity: 1; visibility: visible; display: inline;" id="path3315"/>
  </g>
</svg>